<?xml version="1.0" encoding="UTF-8"?>
<!DOCTYPE svg PUBLIC "-//W3C//DTD SVG 1.1//EN" "http://www.w3.org/Graphics/SVG/1.1/DTD/svg11.dtd">
<svg version="1.1" xmlns="http://www.w3.org/2000/svg" xmlns:xlink="http://www.w3.org/1999/xlink" x="0" y="0" width="442.8" height="323.228" viewBox="0, 0, 108, 78.836">
  <g id="Layer_1">
    <g>
      <path d="M88.941,58.468 C88.941,64.318 79.458,69.059 67.758,69.059 C56.06,69.059 46.575,64.317 46.575,58.468 C46.575,52.619 56.059,47.877 67.758,47.877 C79.458,47.877 88.941,52.618 88.941,58.468" fill="#8EC6EC"/>
      <path d="M67.76,63.831 L67.76,63.831 z M67.76,63.831 C56.061,63.831 46.577,61.442 46.577,58.495" fill-opacity="0" stroke="#006BA7" stroke-width="0.352" stroke-miterlimit="22.926"/>
      <path d="M67.76,63.831 L67.76,63.831 z M67.76,63.831 C79.459,63.831 88.944,61.442 88.944,58.495" fill-opacity="0" stroke="#006BA7" stroke-width="0.352" stroke-miterlimit="22.926"/>
      <path d="M67.76,53.11 L67.76,53.11 z M67.76,53.11 C56.061,53.11 46.577,55.521 46.577,58.495" fill-opacity="0" stroke="#FFFFFF" stroke-width="0.176" stroke-dasharray="0.526,0.352" stroke-miterlimit="22.926"/>
      <path d="M67.76,53.11 L67.76,53.11 z M67.76,53.11 C79.459,53.11 88.944,55.521 88.944,58.495" fill-opacity="0" stroke="#FFFFFF" stroke-width="0.176" stroke-dasharray="0.526,0.352" stroke-miterlimit="22.926"/>
      <path d="M67.76,69.057 L67.76,69.057 z M67.76,69.057 L67.76,47.875" fill-opacity="0" stroke="#006BA7" stroke-width="0.176" stroke-dasharray="1.588,1.059" stroke-miterlimit="22.926"/>
      <path d="M88.941,58.466 L88.941,58.466 z M88.941,58.466 L46.577,58.466" fill-opacity="0" stroke="#006BA7" stroke-width="0.176" stroke-dasharray="1.059,0.882" stroke-miterlimit="22.926"/>
      <path d="M88.809,66.595 L88.809,66.595 z M88.809,66.595 L88.809,75.477" fill-opacity="0" stroke="#8EC6EC" stroke-width="0.352" stroke-miterlimit="22.926"/>
      <path d="M46.444,66.595 L46.444,66.595 z M46.444,66.595 L46.444,75.477" fill-opacity="0" stroke="#8EC6EC" stroke-width="0.352" stroke-miterlimit="22.926"/>
      <path d="M48.71,68.385 L48.71,68.385 z M48.71,68.385 L39.383,68.385" fill-opacity="0" stroke="#8EC6EC" stroke-width="0.353" stroke-miterlimit="22.926"/>
      <path d="M48.71,47.202 L48.71,47.202 z M48.71,47.202 L39.383,47.202" fill-opacity="0" stroke="#8EC6EC" stroke-width="0.353" stroke-miterlimit="22.926"/>
      <path d="M87.363,73.699 L87.363,73.699 z M87.363,73.699 L47.894,73.699" fill-opacity="0" stroke="#8EC6EC" stroke-width="0.353" stroke-miterlimit="22.926"/>
      <path d="M87.363,74.125 L88.494,73.701 L87.363,73.278 z" fill="#737370"/>
      <path d="M87.363,74.124 L88.494,73.699 L87.363,73.276 z" fill="#8EC6EC"/>
      <path d="M87.363,74.124 L88.494,73.699 L87.363,73.276 z" fill-opacity="0" stroke="#8EC6EC" stroke-width="0.353" stroke-miterlimit="22.926"/>
      <path d="M47.894,73.278 L46.764,73.701 L47.894,74.125 z" fill="#737370"/>
      <path d="M47.894,73.276 L46.764,73.699 L47.894,74.124 z" fill="#8EC6EC"/>
      <path d="M47.894,73.276 L46.764,73.699 L47.894,74.124 z" fill-opacity="0" stroke="#8EC6EC" stroke-width="0.353" stroke-miterlimit="22.926"/>
      <path d="M41.151,66.957 L41.151,66.957 z M41.151,66.957 L41.151,48.668" fill="#8EC6EC"/>
      <path d="M41.151,66.957 L41.151,66.957 z M41.151,66.957 L41.151,48.668" fill-opacity="0" stroke="#8EC6EC" stroke-width="0.353" stroke-miterlimit="22.926"/>
      <path d="M40.727,66.958 L41.15,68.088 L41.574,66.958 z" fill="#8EC6EC"/>
      <path d="M40.728,66.957 L41.151,68.086 L41.575,66.957 z" fill="#8EC6EC"/>
      <path d="M40.728,66.957 L41.151,68.086 L41.575,66.957 z" fill-opacity="0" stroke="#8EC6EC" stroke-width="0.353" stroke-miterlimit="22.926"/>
      <path d="M41.574,48.671 L41.15,47.542 L40.727,48.671 z" fill="#737370"/>
      <path d="M41.575,48.668 L41.151,47.538 L40.728,48.668 z" fill="#8EC6EC"/>
      <path d="M41.575,48.668 L41.151,47.538 L40.728,48.668 z" fill-opacity="0" stroke="#8EC6EC" stroke-width="0.353" stroke-miterlimit="22.926"/>
      <path d="M67.471,75.976 L67.971,75.976 L67.971,75.204 L67.961,75.203 L67.917,75.298 L67.471,75.976 z M68.396,75.976 L68.634,75.976 L68.634,76.306 L68.396,76.306 L68.396,76.767 L67.97,76.767 L67.97,76.306 L67.103,76.306 L67.083,76.051 L67.965,74.642 L68.396,74.642 L68.396,75.976 L68.396,75.976 z" fill="#006BA7"/>
      <path d="M40.048,59.17 L38.622,59.17 L38.622,58.891 L39.28,58.147 C39.378,58.031 39.448,57.933 39.489,57.853 C39.531,57.773 39.552,57.699 39.552,57.632 C39.552,57.544 39.53,57.474 39.486,57.422 C39.442,57.37 39.377,57.343 39.289,57.343 C39.196,57.343 39.125,57.376 39.075,57.444 C39.024,57.511 38.999,57.596 38.999,57.7 L38.584,57.7 L38.581,57.691 C38.576,57.502 38.639,57.343 38.768,57.212 C38.897,57.081 39.071,57.016 39.289,57.016 C39.507,57.016 39.676,57.072 39.797,57.183 C39.918,57.295 39.978,57.444 39.978,57.632 C39.978,57.759 39.945,57.876 39.877,57.981 C39.81,58.086 39.692,58.231 39.527,58.418 L39.176,58.838 L39.179,58.845 L40.047,58.845 L40.048,59.17 L40.048,59.17 z" fill="#006BA7"/>
      <path d="M104.634,56.749 C104.559,56.749 104.492,56.762 104.44,56.786 C104.384,56.811 104.342,56.846 104.313,56.889 L104.313,57.003 C104.313,57.167 104.342,57.293 104.403,57.383 C104.463,57.472 104.543,57.517 104.639,57.517 C104.729,57.517 104.798,57.48 104.852,57.405 C104.905,57.331 104.93,57.238 104.93,57.124 C104.93,57.008 104.905,56.916 104.85,56.849 C104.797,56.781 104.725,56.749 104.634,56.749 M104.725,55.656 C104.809,55.656 104.884,55.663 104.954,55.678 C105.025,55.694 105.096,55.715 105.164,55.745 L105.088,56.057 C105.024,56.035 104.963,56.018 104.91,56.007 C104.857,55.996 104.797,55.99 104.726,55.99 C104.603,55.99 104.501,56.037 104.425,56.133 C104.349,56.229 104.31,56.362 104.31,56.532 L104.31,56.6 C104.368,56.544 104.435,56.502 104.513,56.471 C104.59,56.441 104.679,56.425 104.775,56.425 C104.958,56.425 105.099,56.489 105.202,56.618 C105.305,56.747 105.355,56.915 105.355,57.122 C105.355,57.335 105.289,57.509 105.157,57.642 C105.023,57.776 104.851,57.843 104.638,57.843 C104.415,57.843 104.236,57.766 104.095,57.614 C103.955,57.463 103.886,57.255 103.886,56.991 L103.886,56.546 C103.886,56.276 103.964,56.061 104.122,55.899 C104.282,55.737 104.482,55.656 104.725,55.656 z M103.632,56.015 C103.393,56.296 103.229,56.549 103.143,56.774 C103.055,57 103.012,57.258 103.012,57.549 L103.012,57.811 L102.585,57.811 L102.585,57.549 C102.585,57.253 102.639,56.983 102.748,56.739 C102.855,56.495 103.016,56.254 103.223,56.014 L102.137,56.014 L102.137,55.685 L103.632,55.685 L103.632,56.015 z M101.8,57.813 L101.374,57.813 L101.374,57.439 L101.8,57.439 L101.8,57.813 z M100.334,56.749 C100.258,56.749 100.191,56.762 100.139,56.786 C100.084,56.811 100.042,56.846 100.012,56.889 L100.012,57.003 C100.012,57.167 100.042,57.293 100.102,57.383 C100.163,57.472 100.242,57.517 100.339,57.517 C100.428,57.517 100.498,57.48 100.551,57.405 C100.604,57.331 100.63,57.238 100.63,57.124 C100.63,57.008 100.604,56.916 100.55,56.849 C100.497,56.781 100.425,56.749 100.334,56.749 z M100.425,55.656 C100.508,55.656 100.584,55.663 100.654,55.678 C100.724,55.694 100.795,55.715 100.863,55.745 L100.788,56.057 C100.723,56.035 100.663,56.018 100.609,56.007 C100.556,55.996 100.497,55.99 100.426,55.99 C100.302,55.99 100.201,56.037 100.125,56.133 C100.048,56.229 100.011,56.362 100.011,56.532 L100.011,56.6 C100.068,56.544 100.134,56.502 100.213,56.471 C100.29,56.441 100.378,56.425 100.476,56.425 C100.658,56.425 100.799,56.489 100.902,56.618 C101.005,56.747 101.054,56.915 101.054,57.122 C101.054,57.335 100.988,57.509 100.857,57.642 C100.724,57.776 100.55,57.843 100.337,57.843 C100.115,57.843 99.935,57.766 99.795,57.614 C99.655,57.463 99.585,57.255 99.585,56.991 L99.585,56.546 C99.585,56.276 99.664,56.061 99.822,55.899 C99.982,55.737 100.184,55.656 100.425,55.656 z M98.896,57.813 L98.47,57.813 L98.47,56.059 L98.032,56.059 L98.032,55.733 L98.896,55.657 L98.896,57.813 z M96.771,57.327 L95.462,57.327 L95.462,56.993 L96.771,56.993 L96.771,57.327 z M96.771,56.698 L95.462,56.698 L95.462,56.364 L96.771,56.364 L96.771,56.698 z M93.539,57.235 L93.564,57.352 L93.573,57.352 L93.597,57.24 L94.06,55.687 L94.509,55.687 L93.786,57.812 L93.35,57.812 L92.628,55.687 L93.077,55.687 L93.539,57.235 z" fill="#006BA7"/>
      <path d="M104.521,59.978 C104.589,59.978 104.652,59.964 104.704,59.936 C104.757,59.907 104.799,59.87 104.83,59.822 L104.83,59.574 C104.83,59.441 104.803,59.339 104.748,59.268 C104.693,59.198 104.621,59.163 104.529,59.163 C104.443,59.163 104.374,59.203 104.322,59.282 C104.269,59.361 104.243,59.459 104.243,59.574 C104.243,59.696 104.267,59.794 104.314,59.867 C104.361,59.941 104.432,59.978 104.521,59.978 M104.471,60.693 C104.576,60.693 104.662,60.654 104.731,60.574 C104.797,60.495 104.832,60.384 104.832,60.242 L104.832,60.105 C104.784,60.167 104.728,60.212 104.662,60.244 C104.599,60.275 104.526,60.291 104.453,60.291 C104.255,60.291 104.099,60.227 103.987,60.098 C103.875,59.969 103.819,59.795 103.819,59.574 C103.819,59.361 103.884,59.184 104.018,59.044 C104.151,58.903 104.321,58.834 104.53,58.834 C104.744,58.834 104.919,58.905 105.053,59.049 C105.187,59.193 105.255,59.393 105.255,59.648 L105.255,60.22 C105.255,60.465 105.182,60.66 105.034,60.804 C104.886,60.948 104.699,61.02 104.471,61.02 C104.397,61.02 104.321,61.011 104.242,60.996 C104.164,60.98 104.091,60.958 104.021,60.928 L104.091,60.62 C104.154,60.645 104.212,60.663 104.271,60.675 C104.331,60.687 104.396,60.693 104.471,60.693 z M102.865,59.925 C102.788,59.925 102.722,59.938 102.669,59.962 C102.615,59.987 102.573,60.022 102.543,60.065 L102.543,60.179 C102.543,60.343 102.573,60.469 102.633,60.559 C102.694,60.648 102.772,60.693 102.87,60.693 C102.959,60.693 103.029,60.656 103.082,60.582 C103.134,60.508 103.16,60.414 103.16,60.301 C103.16,60.185 103.134,60.093 103.08,60.026 C103.027,59.958 102.956,59.925 102.865,59.925 z M102.956,58.834 C103.039,58.834 103.115,58.841 103.185,58.856 C103.255,58.871 103.326,58.893 103.394,58.922 L103.318,59.235 C103.253,59.213 103.193,59.195 103.14,59.184 C103.087,59.173 103.027,59.167 102.957,59.167 C102.832,59.167 102.731,59.214 102.655,59.31 C102.579,59.405 102.541,59.539 102.541,59.708 L102.541,59.776 C102.599,59.721 102.665,59.678 102.743,59.647 C102.821,59.616 102.909,59.601 103.005,59.601 C103.189,59.601 103.329,59.665 103.433,59.795 C103.535,59.924 103.585,60.092 103.585,60.299 C103.585,60.512 103.519,60.686 103.386,60.819 C103.254,60.953 103.081,61.02 102.868,61.02 C102.645,61.02 102.466,60.944 102.326,60.792 C102.184,60.641 102.116,60.433 102.116,60.169 L102.116,59.724 C102.116,59.454 102.194,59.239 102.352,59.077 C102.514,58.915 102.714,58.834 102.956,58.834 z M101.746,60.989 L101.32,60.989 L101.32,60.615 L101.746,60.615 L101.746,60.989 z M99.863,60.198 L100.361,60.198 L100.361,59.426 L100.353,59.425 L100.308,59.521 L99.863,60.198 z M100.789,60.198 L101.027,60.198 L101.027,60.528 L100.789,60.528 L100.789,60.989 L100.361,60.989 L100.361,60.528 L99.497,60.528 L99.476,60.273 L100.357,58.864 L100.789,58.864 L100.789,60.198 z M98.523,59.74 C98.626,59.74 98.701,59.714 98.75,59.661 C98.8,59.609 98.824,59.535 98.824,59.439 C98.824,59.359 98.798,59.293 98.747,59.24 C98.695,59.188 98.623,59.161 98.529,59.161 C98.453,59.161 98.386,59.185 98.334,59.233 C98.281,59.28 98.255,59.341 98.255,59.415 L97.843,59.415 L97.84,59.406 C97.835,59.239 97.899,59.102 98.033,58.994 C98.167,58.886 98.333,58.832 98.529,58.832 C98.75,58.832 98.925,58.883 99.054,58.987 C99.183,59.091 99.247,59.239 99.247,59.433 C99.247,59.53 99.22,59.619 99.163,59.701 C99.106,59.783 99.03,59.847 98.934,59.893 C99.043,59.935 99.129,59.998 99.19,60.083 C99.251,60.168 99.281,60.271 99.281,60.392 C99.281,60.586 99.211,60.739 99.069,60.85 C98.928,60.962 98.749,61.017 98.528,61.017 C98.336,61.017 98.167,60.964 98.02,60.859 C97.875,60.754 97.805,60.606 97.811,60.416 L97.813,60.408 L98.229,60.408 C98.229,60.488 98.255,60.554 98.313,60.609 C98.368,60.663 98.44,60.69 98.528,60.69 C98.627,60.69 98.706,60.662 98.766,60.604 C98.827,60.547 98.856,60.475 98.856,60.387 C98.856,60.275 98.829,60.192 98.77,60.138 C98.714,60.084 98.631,60.057 98.522,60.057 L98.29,60.057 L98.29,59.738 L98.523,59.738 L98.523,59.74 z M96.718,60.505 L95.409,60.505 L95.409,60.171 L96.718,60.171 L96.718,60.505 z M96.718,59.876 L95.409,59.876 L95.409,59.542 L96.718,59.542 L96.718,59.876 z M93.922,60.435 C93.922,60.353 93.895,60.288 93.837,60.238 C93.779,60.189 93.682,60.142 93.537,60.098 C93.292,60.024 93.105,59.937 92.978,59.837 C92.851,59.736 92.788,59.6 92.788,59.426 C92.788,59.252 92.859,59.11 93.003,59 C93.147,58.89 93.328,58.835 93.55,58.835 C93.786,58.835 93.975,58.894 94.119,59.013 C94.262,59.132 94.332,59.287 94.327,59.48 L94.324,59.488 L93.911,59.488 C93.911,59.382 93.878,59.301 93.814,59.244 C93.75,59.187 93.66,59.159 93.543,59.159 C93.439,59.159 93.355,59.184 93.3,59.235 C93.242,59.285 93.213,59.35 93.213,59.429 C93.213,59.501 93.245,59.56 93.307,59.606 C93.37,59.652 93.477,59.701 93.629,59.753 C93.863,59.819 94.041,59.905 94.164,60.012 C94.286,60.119 94.348,60.259 94.348,60.433 C94.348,60.615 94.278,60.758 94.135,60.864 C93.992,60.969 93.805,61.022 93.572,61.022 C93.343,61.022 93.146,60.965 92.982,60.851 C92.818,60.737 92.738,60.567 92.744,60.341 L92.747,60.332 L93.16,60.332 C93.16,60.458 93.197,60.55 93.271,60.609 C93.345,60.668 93.445,60.698 93.572,60.698 C93.685,60.698 93.771,60.674 93.833,60.627 C93.893,60.578 93.922,60.514 93.922,60.435 z" fill="#006BA7"/>
      <path d="M77.004,43.413 C77.004,43.572 77.037,43.701 77.104,43.796 C77.167,43.892 77.27,43.94 77.407,43.94 C77.493,43.94 77.565,43.92 77.624,43.881 C77.683,43.842 77.729,43.788 77.767,43.717 L77.767,42.98 C77.73,42.915 77.683,42.863 77.623,42.825 C77.563,42.786 77.493,42.767 77.41,42.767 C77.27,42.767 77.17,42.824 77.104,42.938 C77.039,43.052 77.004,43.199 77.004,43.382 L77.004,43.413 z M76.716,43.383 C76.716,43.129 76.772,42.924 76.879,42.768 C76.988,42.612 77.141,42.534 77.335,42.534 C77.428,42.534 77.51,42.552 77.581,42.585 C77.652,42.619 77.714,42.669 77.766,42.734 L77.766,41.866 L78.053,41.866 L78.053,44.143 L77.831,44.143 L77.788,43.943 C77.736,44.019 77.673,44.076 77.598,44.115 C77.522,44.154 77.434,44.174 77.332,44.174 C77.141,44.174 76.988,44.104 76.88,43.965 C76.772,43.825 76.716,43.641 76.716,43.414 L76.716,43.383 z M76.34,42.16 L76.052,42.16 L76.052,41.867 L76.34,41.867 L76.34,42.16 z M76.34,44.143 L76.052,44.143 L76.052,42.563 L76.34,42.563 L76.34,44.143 z M74.55,43.371 C74.55,43.538 74.585,43.676 74.656,43.785 C74.726,43.894 74.831,43.949 74.97,43.949 C75.107,43.949 75.21,43.895 75.283,43.785 C75.353,43.676 75.388,43.538 75.388,43.371 L75.388,43.339 C75.388,43.174 75.353,43.036 75.282,42.926 C75.211,42.816 75.105,42.761 74.968,42.761 C74.831,42.761 74.727,42.816 74.656,42.926 C74.585,43.036 74.55,43.174 74.55,43.339 L74.55,43.371 z M74.264,43.339 C74.264,43.106 74.327,42.913 74.452,42.761 C74.578,42.609 74.751,42.534 74.968,42.534 C75.188,42.534 75.36,42.61 75.487,42.761 C75.614,42.912 75.677,43.104 75.677,43.339 L75.677,43.371 C75.677,43.606 75.614,43.799 75.489,43.949 C75.362,44.099 75.19,44.174 74.971,44.174 C74.753,44.174 74.58,44.099 74.453,43.948 C74.326,43.797 74.264,43.605 74.264,43.371 L74.264,43.339 z M74.061,42.818 L73.914,42.809 C73.839,42.809 73.774,42.827 73.724,42.864 C73.67,42.9 73.63,42.95 73.603,43.015 L73.603,44.143 L73.316,44.143 L73.316,42.563 L73.572,42.563 L73.599,42.794 C73.644,42.712 73.701,42.648 73.765,42.603 C73.83,42.558 73.906,42.534 73.993,42.534 C74.014,42.534 74.035,42.536 74.055,42.539 C74.075,42.543 74.091,42.546 74.104,42.55 L74.061,42.818 z M72.355,42.761 C72.254,42.761 72.171,42.8 72.105,42.877 C72.041,42.955 72.001,43.053 71.986,43.174 L71.988,43.181 L72.702,43.181 L72.702,43.157 C72.702,43.043 72.674,42.948 72.617,42.873 C72.561,42.799 72.475,42.761 72.355,42.761 z M72.4,44.174 C72.172,44.174 71.997,44.101 71.871,43.956 C71.744,43.81 71.68,43.62 71.68,43.384 L71.68,43.32 C71.68,43.093 71.746,42.905 71.876,42.757 C72.008,42.609 72.167,42.534 72.355,42.534 C72.566,42.534 72.724,42.6 72.831,42.732 C72.935,42.863 72.988,43.038 72.988,43.256 L72.988,43.407 L71.978,43.407 L71.974,43.414 C71.974,43.572 72.008,43.702 72.078,43.8 C72.147,43.898 72.255,43.948 72.399,43.948 C72.497,43.948 72.582,43.934 72.655,43.907 C72.727,43.879 72.792,43.841 72.844,43.792 L72.955,43.979 C72.898,44.033 72.824,44.08 72.73,44.117 C72.645,44.155 72.531,44.174 72.4,44.174 z M70.336,42.776 C70.391,42.7 70.457,42.641 70.536,42.599 C70.615,42.557 70.703,42.535 70.8,42.535 C70.969,42.535 71.1,42.586 71.194,42.687 C71.289,42.788 71.336,42.944 71.336,43.154 L71.336,44.144 L71.049,44.144 L71.049,43.151 C71.049,43.021 71.021,42.924 70.965,42.862 C70.908,42.8 70.825,42.769 70.714,42.769 C70.629,42.769 70.556,42.786 70.491,42.819 C70.428,42.853 70.377,42.9 70.338,42.961 L70.338,44.145 L70.05,44.145 L70.05,41.868 L70.338,41.868 L70.336,42.776 L70.336,42.776 z M69.407,43.383 C69.407,43.204 69.372,43.057 69.302,42.941 C69.233,42.826 69.127,42.768 68.99,42.768 C68.907,42.768 68.836,42.787 68.777,42.824 C68.718,42.861 68.673,42.912 68.636,42.978 L68.636,43.741 C68.671,43.806 68.718,43.857 68.777,43.894 C68.836,43.931 68.908,43.949 68.993,43.949 C69.129,43.949 69.232,43.899 69.303,43.8 C69.374,43.701 69.407,43.571 69.407,43.414 L69.407,43.383 z M69.695,43.413 C69.695,43.641 69.64,43.825 69.531,43.964 C69.422,44.103 69.271,44.173 69.081,44.173 C68.982,44.173 68.896,44.157 68.824,44.124 C68.751,44.092 68.687,44.043 68.636,43.978 L68.636,44.75 L68.347,44.75 L68.347,42.563 L68.568,42.563 L68.613,42.768 C68.666,42.692 68.73,42.634 68.806,42.595 C68.882,42.555 68.972,42.534 69.076,42.534 C69.271,42.534 69.424,42.612 69.532,42.767 C69.64,42.922 69.695,43.127 69.695,43.382 L69.695,43.413 z M67.704,43.718 C67.704,43.655 67.68,43.603 67.632,43.563 C67.583,43.523 67.492,43.488 67.358,43.458 C67.172,43.418 67.03,43.362 66.93,43.29 C66.829,43.218 66.78,43.122 66.78,43.001 C66.78,42.873 66.836,42.762 66.944,42.671 C67.055,42.579 67.196,42.533 67.371,42.533 C67.55,42.533 67.694,42.582 67.808,42.679 C67.918,42.777 67.972,42.89 67.966,43.019 L67.962,43.028 L67.689,43.028 C67.689,42.96 67.66,42.898 67.599,42.842 C67.538,42.786 67.463,42.759 67.371,42.759 C67.27,42.759 67.194,42.781 67.143,42.827 C67.093,42.873 67.069,42.927 67.069,42.991 C67.069,43.053 67.09,43.102 67.132,43.136 C67.176,43.17 67.266,43.201 67.401,43.23 C67.594,43.271 67.742,43.329 67.841,43.404 C67.942,43.479 67.991,43.576 67.991,43.697 C67.991,43.837 67.933,43.951 67.82,44.04 C67.708,44.129 67.558,44.173 67.376,44.173 C67.175,44.173 67.018,44.122 66.9,44.02 C66.785,43.918 66.73,43.799 66.734,43.662 L66.738,43.654 L67.013,43.654 C67.017,43.756 67.054,43.831 67.125,43.878 C67.196,43.925 67.278,43.949 67.374,43.949 C67.478,43.949 67.558,43.928 67.614,43.884 C67.675,43.841 67.704,43.785 67.704,43.718 z M65.086,42.761 C64.984,42.761 64.902,42.8 64.837,42.877 C64.772,42.955 64.733,43.053 64.717,43.174 L64.721,43.181 L65.432,43.181 L65.432,43.157 C65.432,43.043 65.405,42.948 65.348,42.873 C65.291,42.799 65.204,42.761 65.086,42.761 z M65.132,44.174 C64.904,44.174 64.729,44.101 64.602,43.956 C64.475,43.81 64.412,43.62 64.412,43.384 L64.412,43.32 C64.412,43.093 64.477,42.905 64.608,42.757 C64.739,42.609 64.899,42.534 65.087,42.534 C65.298,42.534 65.457,42.6 65.564,42.732 C65.668,42.863 65.722,43.038 65.722,43.256 L65.722,43.407 L64.71,43.407 L64.705,43.414 C64.705,43.572 64.74,43.702 64.81,43.8 C64.879,43.898 64.986,43.948 65.13,43.948 C65.228,43.948 65.314,43.934 65.386,43.907 C65.459,43.879 65.523,43.841 65.575,43.792 L65.686,43.979 C65.629,44.033 65.555,44.08 65.462,44.117 C65.371,44.154 65.262,44.174 65.132,44.174 z M63.871,42.183 L63.871,42.564 L64.17,42.564 L64.17,42.777 L63.871,42.777 L63.871,43.736 C63.871,43.81 63.887,43.862 63.917,43.892 C63.947,43.922 63.988,43.937 64.039,43.937 C64.055,43.937 64.073,43.935 64.094,43.931 C64.115,43.927 64.131,43.922 64.145,43.917 L64.186,44.114 C64.165,44.132 64.131,44.146 64.09,44.157 C64.048,44.168 64.006,44.174 63.966,44.174 C63.85,44.174 63.756,44.139 63.688,44.068 C63.62,43.998 63.584,43.887 63.584,43.736 L63.584,42.777 L63.333,42.777 L63.333,42.564 L63.584,42.564 L63.584,42.183 L63.871,42.183 z M62.32,43.933 C62.424,43.933 62.517,43.906 62.601,43.853 C62.685,43.8 62.74,43.738 62.765,43.669 L62.765,43.412 L62.441,43.412 C62.327,43.412 62.234,43.441 62.165,43.5 C62.096,43.558 62.061,43.627 62.061,43.706 C62.061,43.776 62.082,43.831 62.126,43.873 C62.17,43.912 62.234,43.933 62.32,43.933 z M62.797,44.143 C62.788,44.095 62.779,44.054 62.776,44.017 C62.77,43.98 62.768,43.944 62.766,43.906 C62.712,43.982 62.643,44.046 62.557,44.097 C62.471,44.148 62.377,44.174 62.278,44.174 C62.114,44.174 61.989,44.132 61.903,44.048 C61.817,43.964 61.774,43.848 61.774,43.7 C61.774,43.55 61.836,43.431 61.958,43.346 C62.08,43.261 62.246,43.219 62.455,43.219 L62.768,43.219 L62.768,43.063 C62.768,42.971 62.739,42.897 62.682,42.843 C62.625,42.789 62.546,42.762 62.444,42.762 C62.35,42.762 62.274,42.785 62.216,42.832 C62.159,42.879 62.13,42.935 62.13,43 L61.858,43.003 L61.856,42.994 C61.848,42.879 61.903,42.774 62.016,42.679 C62.13,42.583 62.278,42.535 62.459,42.535 C62.639,42.535 62.781,42.581 62.891,42.672 C63.001,42.763 63.055,42.894 63.055,43.066 L63.055,43.826 C63.055,43.883 63.057,43.937 63.063,43.989 C63.069,44.042 63.081,44.093 63.096,44.144 L62.797,44.143 L62.797,44.143 z M61.385,44.143 L61.098,44.143 L61.098,41.866 L61.385,41.866 L61.385,44.143 z M60.436,43.383 C60.436,43.202 60.403,43.054 60.335,42.939 C60.27,42.825 60.168,42.768 60.031,42.768 C59.941,42.768 59.868,42.789 59.806,42.833 C59.744,42.876 59.697,42.934 59.66,43.007 L59.66,43.692 C59.697,43.77 59.745,43.831 59.806,43.875 C59.867,43.919 59.941,43.941 60.034,43.941 C60.17,43.941 60.269,43.893 60.337,43.796 C60.402,43.699 60.436,43.572 60.436,43.413 L60.436,43.383 z M60.723,43.413 C60.723,43.641 60.668,43.825 60.559,43.964 C60.451,44.103 60.299,44.173 60.108,44.173 C60.004,44.173 59.913,44.152 59.835,44.111 C59.758,44.069 59.694,44.008 59.644,43.927 L59.597,44.142 L59.376,44.142 L59.376,41.865 L59.664,41.865 L59.664,42.749 C59.714,42.679 59.774,42.625 59.849,42.588 C59.922,42.551 60.008,42.532 60.107,42.532 C60.301,42.532 60.454,42.61 60.562,42.766 C60.671,42.922 60.726,43.126 60.726,43.381 L60.726,43.413 L60.723,43.413 z M57.896,43.371 C57.896,43.538 57.931,43.676 58.001,43.785 C58.071,43.894 58.176,43.949 58.315,43.949 C58.452,43.949 58.555,43.895 58.627,43.785 C58.698,43.676 58.733,43.538 58.733,43.371 L58.733,43.339 C58.733,43.174 58.698,43.036 58.627,42.926 C58.556,42.816 58.45,42.761 58.312,42.761 C58.175,42.761 58.073,42.816 58.001,42.926 C57.931,43.036 57.896,43.174 57.896,43.339 L57.896,43.371 z M57.607,43.339 C57.607,43.106 57.67,42.913 57.796,42.761 C57.922,42.61 58.095,42.534 58.312,42.534 C58.532,42.534 58.705,42.61 58.832,42.761 C58.959,42.912 59.021,43.104 59.021,43.339 L59.021,43.371 C59.021,43.606 58.958,43.799 58.833,43.949 C58.706,44.099 58.534,44.174 58.316,44.174 C58.097,44.174 57.924,44.099 57.797,43.948 C57.67,43.797 57.607,43.605 57.607,43.371 L57.607,43.339 z" fill="#006BA7"/>
      <path d="M61.627,58.466 L61.627,58.466 z M61.627,58.466 C61.627,64.315 64.409,69.057 67.841,69.057" fill-opacity="0" stroke="#006BA7" stroke-width="0.354" stroke-miterlimit="22.926"/>
      <path d="M61.627,58.466 L61.627,58.466 z M61.627,58.466 C61.627,52.616 64.409,47.874 67.841,47.874" fill-opacity="0" stroke="#006BA7" stroke-width="0.354" stroke-miterlimit="22.926"/>
      <path d="M73.941,58.466 L73.941,58.466 z M73.941,58.466 L73.941,58.466 z M73.941,58.466 C73.941,52.616 71.21,47.875 67.839,47.875 M73.941,58.466 C73.941,64.315 71.21,69.057 67.839,69.057" fill-opacity="0" stroke="#FFFFFF" stroke-width="0.177" stroke-dasharray="0.53,0.354" stroke-miterlimit="22.926"/>
      <path d="M88.944,58.466 C88.944,64.315 79.46,69.057 67.76,69.057 C56.06,69.057 46.576,64.315 46.576,58.466 C46.576,52.617 56.06,47.875 67.76,47.875 C79.46,47.875 88.944,52.617 88.944,58.466 z" fill-opacity="0" stroke="#006BA7" stroke-width="0.53" stroke-miterlimit="22.926"/>
      <path d="M95.913,19.521 C95.982,19.521 96.043,19.507 96.096,19.479 C96.149,19.45 96.192,19.413 96.223,19.365 L96.223,19.117 C96.223,18.984 96.196,18.882 96.141,18.811 C96.085,18.74 96.012,18.706 95.921,18.706 C95.835,18.706 95.766,18.746 95.714,18.825 C95.66,18.904 95.635,19.002 95.635,19.117 C95.635,19.239 95.658,19.337 95.706,19.41 C95.754,19.482 95.822,19.521 95.913,19.521 M95.861,20.236 C95.966,20.236 96.051,20.196 96.12,20.117 C96.187,20.038 96.223,19.927 96.223,19.785 L96.223,19.648 C96.174,19.709 96.119,19.755 96.052,19.786 C95.989,19.817 95.917,19.833 95.842,19.833 C95.645,19.833 95.488,19.769 95.377,19.641 C95.266,19.512 95.208,19.338 95.208,19.117 C95.208,18.904 95.275,18.727 95.408,18.587 C95.541,18.447 95.712,18.377 95.919,18.377 C96.133,18.377 96.309,18.449 96.443,18.593 C96.577,18.737 96.646,18.936 96.646,19.192 L96.646,19.764 C96.646,20.009 96.572,20.204 96.423,20.348 C96.274,20.492 96.088,20.564 95.86,20.564 C95.786,20.564 95.71,20.556 95.631,20.54 C95.554,20.524 95.48,20.502 95.409,20.472 L95.481,20.164 C95.542,20.189 95.602,20.207 95.661,20.219 C95.723,20.23 95.788,20.236 95.861,20.236 z M94.532,20.532 L94.107,20.532 L94.107,18.778 L93.669,18.778 L93.669,18.452 L94.532,18.376 L94.532,20.532 z M93.137,20.532 L92.711,20.532 L92.711,20.159 L93.137,20.159 L93.137,20.532 z M91.254,19.741 L91.753,19.741 L91.753,18.968 L91.745,18.967 L91.701,19.062 L91.254,19.741 z M92.18,19.741 L92.419,19.741 L92.419,20.071 L92.18,20.071 L92.18,20.532 L91.753,20.532 L91.753,20.071 L90.889,20.071 L90.868,19.816 L91.75,18.407 L92.181,18.407 L92.181,19.741 z M89.823,20.048 L88.515,20.048 L88.515,19.714 L89.823,19.714 L89.823,20.048 z M89.823,19.419 L88.515,19.419 L88.515,19.085 L89.823,19.085 L89.823,19.419 z M86.591,19.957 L86.617,20.074 L86.626,20.074 L86.65,19.962 L87.113,18.409 L87.562,18.409 L86.839,20.534 L86.401,20.534 L85.68,18.409 L86.128,18.409 L86.591,19.957 z" fill="#006BA7"/>
      <path d="M98.346,21.913 C98.106,22.194 97.942,22.447 97.856,22.672 C97.77,22.898 97.725,23.155 97.725,23.446 L97.725,23.709 L97.299,23.709 L97.299,23.446 C97.299,23.15 97.354,22.88 97.461,22.636 C97.57,22.392 97.729,22.151 97.936,21.912 L96.852,21.912 L96.852,21.583 L98.346,21.583 L98.346,21.913 z M95.234,22.773 L95.357,21.585 L96.542,21.585 L96.542,21.927 L95.706,21.927 L95.646,22.423 C95.687,22.394 95.738,22.37 95.796,22.351 C95.857,22.332 95.922,22.322 95.993,22.32 C96.19,22.317 96.345,22.378 96.452,22.503 C96.559,22.628 96.615,22.804 96.615,23.029 C96.615,23.237 96.555,23.408 96.438,23.541 C96.319,23.674 96.139,23.741 95.897,23.741 C95.703,23.741 95.535,23.689 95.395,23.586 C95.255,23.482 95.188,23.34 95.194,23.159 L95.197,23.152 L95.606,23.133 C95.606,23.222 95.633,23.291 95.688,23.341 C95.742,23.39 95.811,23.415 95.897,23.415 C95.999,23.415 96.073,23.382 96.119,23.316 C96.166,23.25 96.188,23.155 96.188,23.033 C96.188,22.911 96.163,22.813 96.113,22.741 C96.061,22.669 95.987,22.632 95.887,22.632 C95.805,22.632 95.742,22.647 95.699,22.677 C95.656,22.707 95.625,22.748 95.606,22.8 L95.234,22.773 z M94.798,23.71 L94.372,23.71 L94.372,23.336 L94.798,23.336 L94.798,23.71 z M94.044,23.71 L92.618,23.71 L92.618,23.431 L93.275,22.686 C93.374,22.57 93.443,22.473 93.484,22.392 C93.525,22.312 93.547,22.238 93.547,22.171 C93.547,22.084 93.525,22.014 93.482,21.961 C93.437,21.908 93.373,21.882 93.286,21.882 C93.193,21.882 93.122,21.916 93.07,21.983 C93.019,22.05 92.995,22.136 92.995,22.239 L92.58,22.239 L92.577,22.229 C92.572,22.041 92.634,21.881 92.764,21.75 C92.895,21.619 93.067,21.554 93.285,21.554 C93.503,21.554 93.672,21.61 93.793,21.721 C93.913,21.833 93.975,21.982 93.975,22.17 C93.975,22.297 93.942,22.414 93.872,22.519 C93.805,22.624 93.687,22.77 93.521,22.957 L93.17,23.378 L93.174,23.385 L94.042,23.385 L94.044,23.71 L94.044,23.71 z M91.895,23.71 L91.469,23.71 L91.469,21.956 L91.03,21.956 L91.03,21.63 L91.893,21.554 L91.893,23.71 L91.895,23.71 z M89.77,23.225 L88.462,23.225 L88.462,22.891 L89.77,22.891 L89.77,23.225 z M89.77,22.596 L88.462,22.596 L88.462,22.262 L89.77,22.262 L89.77,22.596 z M86.975,23.155 C86.975,23.073 86.948,23.008 86.891,22.958 C86.833,22.909 86.733,22.862 86.59,22.818 C86.346,22.744 86.158,22.657 86.031,22.557 C85.904,22.456 85.841,22.32 85.841,22.146 C85.841,21.972 85.912,21.83 86.057,21.719 C86.2,21.609 86.381,21.553 86.604,21.553 C86.838,21.553 87.028,21.612 87.171,21.731 C87.315,21.85 87.384,22.006 87.379,22.198 L87.376,22.207 L86.963,22.207 C86.963,22.101 86.932,22.019 86.866,21.962 C86.803,21.905 86.713,21.877 86.595,21.877 C86.491,21.877 86.408,21.902 86.351,21.953 C86.294,22.004 86.265,22.068 86.265,22.147 C86.265,22.219 86.296,22.278 86.359,22.324 C86.422,22.37 86.529,22.419 86.681,22.471 C86.914,22.536 87.092,22.623 87.215,22.73 C87.338,22.837 87.4,22.977 87.4,23.151 C87.4,23.333 87.33,23.476 87.187,23.582 C87.044,23.687 86.857,23.74 86.624,23.74 C86.395,23.74 86.199,23.683 86.035,23.569 C85.872,23.455 85.792,23.285 85.797,23.06 L85.8,23.051 L86.213,23.051 C86.213,23.176 86.25,23.269 86.324,23.328 C86.396,23.388 86.498,23.417 86.624,23.417 C86.738,23.417 86.825,23.393 86.885,23.346 C86.943,23.299 86.975,23.235 86.975,23.155 z" fill="#006BA7"/>
      <path d="M74.921,20.119 C74.921,25.969 70.179,30.711 64.329,30.711 C58.479,30.711 53.737,25.969 53.737,20.119 C53.737,14.269 58.479,9.527 64.329,9.527 C70.179,9.527 74.921,14.269 74.921,20.119 z" fill-opacity="0" stroke="#294270" stroke-width="0.53" stroke-miterlimit="22.926"/>
      <path d="M64.329,30.713 C58.478,30.713 53.737,25.971 53.737,20.122 C53.737,14.272 58.479,9.531 64.329,9.531 C70.178,9.531 74.92,14.273 74.92,20.122 C74.92,25.97 70.178,30.713 64.329,30.713" fill="#8EC6EC"/>
      <path d="M64.329,22.767 L64.329,22.767 z M64.329,22.767 C58.48,22.767 53.738,21.581 53.738,20.119" fill-opacity="0" stroke="#006BA7" stroke-width="0.353" stroke-miterlimit="22.926"/>
      <path d="M61.682,20.119 L61.682,20.119 z M61.682,20.119 C61.682,25.968 62.869,30.71 64.329,30.71" fill-opacity="0" stroke="#006BA7" stroke-width="0.353" stroke-miterlimit="22.926"/>
      <path d="M64.329,17.471 L64.329,17.471 z M64.329,17.471 C58.48,17.471 53.738,18.657 53.738,20.119" fill-opacity="0" stroke="#FFFFFF" stroke-width="0.176" stroke-dasharray="0.529,0.353" stroke-miterlimit="22.926"/>
      <path d="M64.329,17.471 L64.329,17.471 z M64.329,17.471 C70.18,17.471 74.921,18.657 74.921,20.119" fill-opacity="0" stroke="#FFFFFF" stroke-width="0.176" stroke-dasharray="0.529,0.353" stroke-miterlimit="22.926"/>
      <path d="M66.979,20.119 L66.979,20.119 z M66.979,20.119 C66.979,14.269 65.792,9.527 64.331,9.527" fill-opacity="0" stroke="#FFFFFF" stroke-width="0.176" stroke-dasharray="0.529,0.353" stroke-miterlimit="22.926"/>
      <path d="M66.979,20.119 L66.979,20.119 z M66.979,20.119 C66.979,25.968 65.792,30.71 64.331,30.71" fill-opacity="0" stroke="#FFFFFF" stroke-width="0.176" stroke-dasharray="0.529,0.353" stroke-miterlimit="22.926"/>
      <path d="M64.329,30.71 L64.329,30.71 z M64.329,30.71 L64.329,9.527" fill-opacity="0" stroke="#006BA7" stroke-width="0.176" stroke-dasharray="1.059,0.882" stroke-miterlimit="22.926"/>
      <path d="M53.738,20.119 L53.738,20.119 z M53.738,20.119 L74.921,20.119" fill-opacity="0" stroke="#006BA7" stroke-width="0.176" stroke-dasharray="1.059,0.882" stroke-miterlimit="22.926"/>
      <path d="M74.921,20.119 C74.921,25.969 70.179,30.711 64.329,30.711 C58.479,30.711 53.737,25.969 53.737,20.119 C53.737,14.269 58.479,9.527 64.329,9.527 C70.179,9.527 74.921,14.269 74.921,20.119 z" fill-opacity="0" stroke="#006BA7" stroke-width="0.53" stroke-miterlimit="22.926"/>
      <path d="M72.197,31.103 L72.197,31.103 z M72.197,31.103 L81.523,31.103" fill-opacity="0" stroke="#8EC6EC" stroke-width="0.353" stroke-miterlimit="22.926"/>
      <path d="M72.197,9.92 L72.197,9.92 z M72.197,9.92 L81.523,9.92" fill-opacity="0" stroke="#8EC6EC" stroke-width="0.353" stroke-miterlimit="22.926"/>
      <path d="M79.766,29.676 L79.766,29.676 z M79.766,29.676 L79.766,11.388" fill-opacity="0" stroke="#8EC6EC" stroke-width="0.353" stroke-miterlimit="22.926"/>
      <path d="M79.766,29.678 L79.766,29.678 z M79.766,29.678 L79.766,11.391" fill="#8EC6EC"/>
      <path d="M80.188,29.678 L79.766,30.808 L79.342,29.678 z" fill="#8EC6EC"/>
      <path d="M80.189,29.676 L79.766,30.806 L79.342,29.676 z" fill-opacity="0" stroke="#8EC6EC" stroke-width="0.353" stroke-miterlimit="22.926"/>
      <path d="M80.188,29.678 L79.766,30.808 L79.342,29.678 z" fill="#8EC6EC"/>
      <path d="M79.342,11.391 L79.766,10.261 L80.188,11.391 z" fill="#737370"/>
      <path d="M79.342,11.388 L79.766,10.258 L80.189,11.388 z" fill-opacity="0" stroke="#8EC6EC" stroke-width="0.353" stroke-miterlimit="22.926"/>
      <path d="M79.342,11.391 L79.766,10.261 L80.188,11.391 z" fill="#8EC6EC"/>
      <path d="M81.948,21.89 L80.521,21.89 L80.521,21.611 L81.179,20.866 C81.279,20.751 81.347,20.653 81.388,20.572 C81.431,20.492 81.451,20.418 81.451,20.351 C81.451,20.264 81.43,20.194 81.386,20.141 C81.342,20.089 81.277,20.062 81.189,20.062 C81.097,20.062 81.025,20.096 80.974,20.163 C80.923,20.23 80.9,20.315 80.9,20.418 L80.484,20.418 L80.482,20.409 C80.476,20.22 80.54,20.06 80.67,19.93 C80.799,19.799 80.973,19.734 81.191,19.734 C81.409,19.734 81.579,19.79 81.699,19.901 C81.82,20.013 81.88,20.162 81.88,20.35 C81.88,20.477 81.848,20.594 81.779,20.699 C81.712,20.804 81.593,20.95 81.429,21.136 L81.077,21.557 L81.08,21.564 L81.948,21.564 L81.948,21.89 L81.948,21.89 z" fill="#006BA7"/>
      <path d="M53.45,28.723 L53.45,28.723 z M53.45,28.723 L53.45,38.051" fill-opacity="0" stroke="#8EC6EC" stroke-width="0.353" stroke-miterlimit="22.926"/>
      <path d="M74.634,28.723 L74.634,28.723 z M74.634,28.723 L74.634,38.051" fill-opacity="0" stroke="#8EC6EC" stroke-width="0.353" stroke-miterlimit="22.926"/>
      <path d="M54.895,36.261 L54.895,36.261 z M54.895,36.261 L73.182,36.261" fill-opacity="0" stroke="#8EC6EC" stroke-width="0.353" stroke-miterlimit="22.926"/>
      <path d="M54.895,36.264 L54.895,36.264 z M54.895,36.264 L73.182,36.264" fill="#8EC6EC"/>
      <path d="M54.895,36.688 L53.764,36.264 L54.895,35.84 z" fill="#8EC6EC"/>
      <path d="M54.895,36.685 L53.764,36.261 L54.895,35.838 z" fill-opacity="0" stroke="#8EC6EC" stroke-width="0.353" stroke-miterlimit="22.926"/>
      <path d="M54.895,36.688 L53.764,36.264 L54.895,35.84 z" fill="#8EC6EC"/>
      <path d="M73.182,35.84 L74.311,36.264 L73.182,36.688 z" fill="#737370"/>
      <path d="M73.182,35.838 L74.313,36.261 L73.182,36.685 z" fill-opacity="0" stroke="#8EC6EC" stroke-width="0.353" stroke-miterlimit="22.926"/>
      <path d="M73.182,35.84 L74.311,36.264 L73.182,36.688 z" fill="#8EC6EC"/>
      <path d="M64.559,38.727 L63.133,38.727 L63.133,38.448 L63.791,37.704 C63.889,37.588 63.958,37.49 64,37.41 C64.041,37.33 64.063,37.256 64.063,37.188 C64.063,37.101 64.042,37.031 63.998,36.978 C63.954,36.926 63.89,36.899 63.802,36.899 C63.709,36.899 63.638,36.932 63.587,37 C63.536,37.068 63.511,37.152 63.511,37.256 L63.097,37.256 L63.094,37.247 C63.089,37.058 63.152,36.898 63.281,36.768 C63.412,36.638 63.585,36.572 63.802,36.572 C64.021,36.572 64.189,36.627 64.31,36.739 C64.431,36.851 64.49,37 64.49,37.188 C64.49,37.315 64.457,37.432 64.388,37.537 C64.319,37.642 64.202,37.787 64.037,37.974 L63.686,38.394 L63.69,38.401 L64.557,38.401 L64.557,38.727 z" fill="#006BA7"/>
      <path d="M68.193,5.482 C68.091,5.482 68.009,5.521 67.943,5.598 C67.879,5.676 67.839,5.774 67.824,5.895 L67.827,5.902 L68.539,5.902 L68.539,5.879 C68.539,5.764 68.512,5.67 68.455,5.595 C68.398,5.519 68.313,5.482 68.193,5.482 M68.238,6.896 C68.011,6.896 67.835,6.823 67.708,6.678 C67.581,6.533 67.518,6.342 67.518,6.106 L67.518,6.042 C67.518,5.815 67.583,5.627 67.714,5.479 C67.846,5.332 68.005,5.256 68.193,5.256 C68.404,5.256 68.562,5.322 68.668,5.454 C68.773,5.585 68.827,5.76 68.827,5.978 L68.827,6.129 L67.816,6.129 L67.812,6.137 C67.812,6.295 67.847,6.424 67.916,6.523 C67.985,6.622 68.093,6.671 68.235,6.671 C68.334,6.671 68.42,6.657 68.493,6.629 C68.565,6.601 68.63,6.563 68.681,6.514 L68.795,6.7 C68.738,6.755 68.664,6.801 68.57,6.838 C68.48,6.876 68.369,6.896 68.238,6.896 z M67.313,5.538 L67.167,5.529 C67.091,5.529 67.026,5.547 66.976,5.583 C66.924,5.619 66.883,5.669 66.855,5.734 L66.855,6.862 L66.568,6.862 L66.568,5.283 L66.826,5.283 L66.853,5.513 C66.898,5.431 66.953,5.367 67.017,5.322 C67.083,5.276 67.16,5.253 67.246,5.253 C67.267,5.253 67.288,5.255 67.307,5.259 C67.328,5.262 67.343,5.266 67.356,5.27 L67.313,5.538 z M65.609,5.482 C65.507,5.482 65.425,5.521 65.359,5.598 C65.295,5.676 65.255,5.774 65.24,5.895 L65.243,5.902 L65.955,5.902 L65.955,5.879 C65.955,5.764 65.927,5.67 65.87,5.595 C65.814,5.519 65.729,5.482 65.609,5.482 z M65.654,6.896 C65.426,6.896 65.251,6.823 65.124,6.678 C64.997,6.533 64.934,6.342 64.934,6.106 L64.934,6.042 C64.934,5.815 64.999,5.627 65.13,5.479 C65.262,5.332 65.421,5.256 65.609,5.256 C65.82,5.256 65.978,5.322 66.084,5.454 C66.189,5.585 66.243,5.76 66.243,5.978 L66.243,6.129 L65.232,6.129 L65.228,6.137 C65.228,6.295 65.263,6.424 65.332,6.523 C65.401,6.622 65.509,6.671 65.651,6.671 C65.75,6.671 65.836,6.657 65.909,6.629 C65.981,6.601 66.046,6.563 66.097,6.514 L66.211,6.7 C66.154,6.755 66.079,6.801 65.986,6.838 C65.896,6.876 65.785,6.896 65.654,6.896 z M63.589,5.496 C63.645,5.42 63.711,5.361 63.79,5.319 C63.869,5.277 63.957,5.255 64.055,5.255 C64.223,5.255 64.354,5.306 64.449,5.407 C64.543,5.508 64.59,5.664 64.59,5.874 L64.59,6.863 L64.303,6.863 L64.303,5.871 C64.303,5.74 64.275,5.644 64.218,5.582 C64.162,5.52 64.079,5.488 63.968,5.488 C63.882,5.488 63.808,5.505 63.745,5.538 C63.682,5.572 63.63,5.619 63.591,5.679 L63.591,6.863 L63.304,6.863 L63.304,4.586 L63.591,4.586 L63.589,5.496 L63.589,5.496 z M62.661,6.103 C62.661,5.924 62.626,5.777 62.557,5.661 C62.485,5.546 62.38,5.488 62.244,5.488 C62.162,5.488 62.091,5.507 62.032,5.544 C61.973,5.582 61.927,5.633 61.891,5.698 L61.891,6.461 C61.925,6.526 61.973,6.577 62.032,6.613 C62.091,6.65 62.163,6.668 62.247,6.668 C62.383,6.668 62.485,6.618 62.558,6.518 C62.627,6.418 62.662,6.29 62.662,6.132 L62.662,6.103 z M62.948,6.134 C62.948,6.362 62.892,6.545 62.785,6.685 C62.676,6.825 62.525,6.895 62.334,6.895 C62.236,6.895 62.15,6.878 62.078,6.846 C62.004,6.813 61.941,6.764 61.89,6.7 L61.89,7.472 L61.601,7.472 L61.601,5.285 L61.823,5.285 L61.868,5.489 C61.92,5.413 61.984,5.356 62.06,5.316 C62.136,5.276 62.226,5.255 62.33,5.255 C62.525,5.255 62.678,5.333 62.785,5.488 C62.892,5.643 62.948,5.848 62.948,6.103 L62.948,6.134 z M60.957,6.439 C60.957,6.376 60.934,6.324 60.885,6.285 C60.837,6.245 60.745,6.21 60.612,6.18 C60.426,6.14 60.284,6.084 60.184,6.013 C60.083,5.942 60.035,5.845 60.035,5.724 C60.035,5.596 60.09,5.485 60.199,5.394 C60.307,5.302 60.45,5.256 60.625,5.256 C60.804,5.256 60.949,5.305 61.06,5.402 C61.171,5.5 61.224,5.613 61.219,5.743 L61.216,5.752 L60.943,5.752 C60.943,5.684 60.914,5.622 60.853,5.566 C60.792,5.51 60.716,5.483 60.625,5.483 C60.524,5.483 60.448,5.505 60.397,5.551 C60.346,5.597 60.321,5.651 60.321,5.715 C60.321,5.777 60.343,5.825 60.387,5.859 C60.43,5.894 60.52,5.924 60.655,5.953 C60.848,5.994 60.996,6.052 61.096,6.127 C61.196,6.202 61.245,6.299 61.245,6.42 C61.245,6.56 61.187,6.674 61.075,6.763 C60.961,6.852 60.812,6.896 60.63,6.896 C60.43,6.896 60.272,6.845 60.154,6.743 C60.039,6.64 59.982,6.521 59.988,6.385 L59.992,6.377 L60.265,6.377 C60.271,6.479 60.308,6.554 60.378,6.601 C60.45,6.648 60.533,6.672 60.628,6.672 C60.732,6.672 60.812,6.651 60.868,6.607 C60.93,6.561 60.957,6.506 60.957,6.439 z" fill="#006BA7"/>
      <path d="M61.682,20.119 L61.682,20.119 z M61.682,20.119 C61.682,14.269 62.869,9.527 64.329,9.527" fill-opacity="0" stroke="#006BA7" stroke-width="0.353" stroke-miterlimit="22.926"/>
      <path d="M64.329,22.767 L64.329,22.767 z M64.329,22.767 C70.18,22.767 74.921,21.581 74.921,20.119" fill-opacity="0" stroke="#006BA7" stroke-width="0.353" stroke-miterlimit="22.926"/>
      <path d="M24.397,10.307 L24.397,10.307 z M24.397,10.307 L33.279,10.307" fill-opacity="0" stroke="#8EC6EC" stroke-width="0.352" stroke-miterlimit="22.926"/>
      <path d="M24.397,52.671 L24.397,52.671 z M24.397,52.671 L33.279,52.671" fill-opacity="0" stroke="#8EC6EC" stroke-width="0.352" stroke-miterlimit="22.926"/>
      <path d="M26.221,50.409 L26.221,50.409 z M26.221,50.409 L26.221,59.737" fill-opacity="0" stroke="#8EC6EC" stroke-width="0.353" stroke-miterlimit="22.926"/>
      <path d="M5.037,50.409 L5.037,50.409 z M5.037,50.409 L5.037,59.737" fill-opacity="0" stroke="#8EC6EC" stroke-width="0.353" stroke-miterlimit="22.926"/>
      <path d="M15.628,52.656 C9.779,52.656 5.037,43.172 5.037,31.473 C5.037,19.774 9.779,10.29 15.628,10.29 C21.478,10.29 26.219,19.774 26.219,31.473 C26.219,43.172 21.478,52.656 15.628,52.656" fill="#8EC6EC"/>
      <path d="M15.628,34.193 L15.628,34.193 z M15.628,34.193 C9.779,34.193 5.037,32.974 5.037,31.471" fill-opacity="0" stroke="#006BA7" stroke-width="0.353" stroke-miterlimit="22.926"/>
      <path d="M12.98,31.47 L12.98,31.47 z M12.98,31.47 C12.98,43.169 14.16,52.653 15.616,52.653" fill-opacity="0" stroke="#006BA7" stroke-width="0.353" stroke-miterlimit="22.926"/>
      <path d="M15.628,28.798 L15.628,28.798 z M15.628,28.798 L15.628,28.798 z M15.628,28.798 C21.478,28.798 26.22,29.995 26.22,31.47 M15.628,28.798 C9.779,28.798 5.037,29.995 5.037,31.47" fill-opacity="0" stroke="#FFFFFF" stroke-width="0.176" stroke-dasharray="0.529,0.353" stroke-miterlimit="22.926"/>
      <path d="M18.276,31.47 L18.276,31.47 z M18.276,31.47 C18.276,19.771 17.085,10.287 15.616,10.287" fill-opacity="0" stroke="#FFFFFF" stroke-width="0.176" stroke-dasharray="0.529,0.353" stroke-miterlimit="22.926"/>
      <path d="M18.276,31.47 L18.276,31.47 z M18.276,31.47 C18.276,43.169 17.085,52.653 15.616,52.653" fill-opacity="0" stroke="#FFFFFF" stroke-width="0.176" stroke-dasharray="0.529,0.353" stroke-miterlimit="22.926"/>
      <path d="M5.037,31.47 L5.037,31.47 z M5.037,31.47 L26.22,31.47" fill-opacity="0" stroke="#006BA7" stroke-width="0.176" stroke-dasharray="1.588,1.059" stroke-miterlimit="22.926"/>
      <path d="M15.628,52.654 L15.628,52.654 z M15.628,52.654 L15.628,10.288" fill-opacity="0" stroke="#006BA7" stroke-width="0.176" stroke-dasharray="1.059,0.882" stroke-miterlimit="22.926"/>
      <path d="M31.515,11.735 L31.515,11.735 z M31.515,11.735 L31.515,51.206" fill-opacity="0" stroke="#8EC6EC" stroke-width="0.353" stroke-miterlimit="22.926"/>
      <path d="M31.939,11.737 L31.515,10.608 L31.091,11.737 z" fill="#737370"/>
      <path d="M31.939,11.735 L31.515,10.605 L31.092,11.735 z" fill="#8EC6EC"/>
      <path d="M31.939,11.735 L31.515,10.605 L31.092,11.735 z" fill-opacity="0" stroke="#8EC6EC" stroke-width="0.353" stroke-miterlimit="22.926"/>
      <path d="M31.091,51.208 L31.515,52.338 L31.939,51.208 z" fill="#737370"/>
      <path d="M31.092,51.207 L31.515,52.336 L31.939,51.207 z" fill="#8EC6EC"/>
      <path d="M31.092,51.207 L31.515,52.336 L31.939,51.207 z" fill-opacity="0" stroke="#8EC6EC" stroke-width="0.353" stroke-miterlimit="22.926"/>
      <path d="M24.772,57.949 L24.772,57.949 z M24.772,57.949 L6.484,57.949" fill="#8EC6EC"/>
      <path d="M24.772,57.949 L24.772,57.949 z M24.772,57.949 L6.484,57.949" fill-opacity="0" stroke="#8EC6EC" stroke-width="0.353" stroke-miterlimit="22.926"/>
      <path d="M24.772,58.375 L25.901,57.951 L24.772,57.528 z" fill="#8EC6EC"/>
      <path d="M24.772,58.374 L25.902,57.949 L24.772,57.525 z" fill="#8EC6EC"/>
      <path d="M24.772,58.374 L25.902,57.949 L24.772,57.525 z" fill-opacity="0" stroke="#8EC6EC" stroke-width="0.353" stroke-miterlimit="22.926"/>
      <path d="M6.484,57.528 L5.354,57.951 L6.484,58.375 z" fill="#737370"/>
      <path d="M6.484,57.525 L5.354,57.949 L6.484,58.374 z" fill="#8EC6EC"/>
      <path d="M6.484,57.525 L5.354,57.949 L6.484,58.374 z" fill-opacity="0" stroke="#8EC6EC" stroke-width="0.353" stroke-miterlimit="22.926"/>
      <path d="M33.199,33.104 L33.698,33.104 L33.698,32.332 L33.69,32.331 L33.646,32.426 L33.199,33.104 z M34.125,33.104 L34.364,33.104 L34.364,33.434 L34.125,33.434 L34.125,33.895 L33.698,33.895 L33.698,33.434 L32.833,33.434 L32.812,33.179 L33.694,31.77 L34.125,31.77 L34.125,33.104 z" fill="#006BA7"/>
      <path d="M16.191,57.188 L14.765,57.188 L14.765,56.909 L15.423,56.164 C15.521,56.049 15.59,55.951 15.632,55.87 C15.674,55.79 15.695,55.716 15.695,55.649 C15.695,55.562 15.673,55.492 15.629,55.439 C15.585,55.386 15.519,55.36 15.432,55.36 C15.339,55.36 15.268,55.393 15.217,55.461 C15.166,55.528 15.141,55.613 15.141,55.716 L14.726,55.716 L14.723,55.707 C14.718,55.518 14.78,55.358 14.91,55.228 C15.039,55.097 15.213,55.032 15.431,55.032 C15.648,55.032 15.818,55.088 15.938,55.199 C16.059,55.31 16.119,55.46 16.119,55.648 C16.119,55.775 16.086,55.892 16.018,55.997 C15.95,56.101 15.833,56.248 15.668,56.434 L15.317,56.855 L15.32,56.862 L16.188,56.862 L16.188,57.188 L16.191,57.188 z" fill="#006BA7"/>
      <path d="M18.224,62.972 C18.224,62.888 18.203,62.822 18.159,62.772 C18.115,62.723 18.058,62.698 17.989,62.698 C17.908,62.698 17.845,62.722 17.798,62.77 C17.751,62.818 17.726,62.885 17.726,62.971 C17.726,63.057 17.75,63.127 17.799,63.18 C17.847,63.233 17.911,63.26 17.991,63.26 C18.061,63.26 18.117,63.233 18.16,63.181 C18.203,63.13 18.224,63.06 18.224,62.972 M18.294,63.915 C18.294,63.82 18.265,63.743 18.206,63.682 C18.146,63.621 18.074,63.591 17.988,63.591 C17.892,63.591 17.813,63.621 17.75,63.682 C17.687,63.743 17.655,63.821 17.655,63.915 C17.655,64.011 17.686,64.088 17.749,64.144 C17.812,64.202 17.892,64.23 17.99,64.23 C18.077,64.23 18.15,64.202 18.208,64.144 C18.266,64.087 18.294,64.01 18.294,63.915 z M18.649,62.953 C18.649,63.058 18.622,63.151 18.567,63.232 C18.512,63.314 18.438,63.377 18.342,63.422 C18.458,63.47 18.55,63.538 18.617,63.627 C18.685,63.716 18.72,63.818 18.72,63.933 C18.72,64.129 18.652,64.282 18.515,64.392 C18.378,64.501 18.203,64.556 17.99,64.556 C17.767,64.556 17.584,64.501 17.441,64.392 C17.298,64.282 17.227,64.129 17.227,63.933 C17.227,63.818 17.262,63.716 17.333,63.627 C17.403,63.538 17.499,63.47 17.62,63.422 C17.52,63.376 17.441,63.313 17.384,63.232 C17.327,63.151 17.299,63.058 17.299,62.953 C17.299,62.766 17.363,62.622 17.49,62.521 C17.617,62.42 17.783,62.37 17.988,62.37 C18.183,62.37 18.342,62.42 18.465,62.521 C18.588,62.622 18.649,62.766 18.649,62.953 z M16.238,63.277 C16.339,63.277 16.414,63.251 16.464,63.198 C16.514,63.145 16.538,63.072 16.538,62.976 C16.538,62.896 16.512,62.83 16.461,62.777 C16.409,62.724 16.337,62.698 16.245,62.698 C16.167,62.698 16.101,62.722 16.049,62.77 C15.996,62.817 15.969,62.878 15.969,62.953 L15.557,62.953 L15.554,62.944 C15.549,62.777 15.612,62.64 15.747,62.532 C15.881,62.424 16.047,62.37 16.245,62.37 C16.465,62.37 16.64,62.422 16.769,62.525 C16.899,62.629 16.963,62.777 16.963,62.971 C16.963,63.068 16.935,63.157 16.879,63.239 C16.823,63.321 16.747,63.384 16.65,63.431 C16.76,63.473 16.846,63.536 16.906,63.621 C16.967,63.706 16.997,63.809 16.997,63.93 C16.997,64.124 16.927,64.277 16.786,64.388 C16.646,64.5 16.465,64.555 16.245,64.555 C16.051,64.555 15.882,64.502 15.737,64.397 C15.592,64.292 15.523,64.145 15.527,63.955 L15.53,63.946 L15.945,63.946 C15.945,64.026 15.973,64.093 16.029,64.147 C16.084,64.201 16.156,64.228 16.245,64.228 C16.342,64.228 16.421,64.2 16.482,64.142 C16.542,64.085 16.572,64.013 16.572,63.925 C16.572,63.813 16.544,63.73 16.488,63.675 C16.432,63.621 16.349,63.594 16.24,63.594 L16.005,63.594 L16.005,63.274 L16.238,63.274 L16.238,63.277 z M15.159,64.527 L14.733,64.527 L14.733,64.153 L15.159,64.153 L15.159,64.527 z M13.924,62.972 C13.924,62.888 13.902,62.822 13.858,62.772 C13.814,62.722 13.757,62.698 13.688,62.698 C13.608,62.698 13.545,62.722 13.497,62.77 C13.449,62.818 13.425,62.885 13.425,62.971 C13.425,63.057 13.449,63.127 13.498,63.18 C13.546,63.233 13.61,63.26 13.69,63.26 C13.76,63.26 13.816,63.233 13.859,63.181 C13.903,63.13 13.924,63.06 13.924,62.972 z M13.995,63.915 C13.995,63.82 13.966,63.743 13.907,63.682 C13.847,63.621 13.775,63.591 13.688,63.591 C13.592,63.591 13.513,63.621 13.45,63.682 C13.387,63.743 13.355,63.821 13.355,63.915 C13.355,64.011 13.386,64.088 13.449,64.144 C13.512,64.202 13.592,64.23 13.69,64.23 C13.777,64.23 13.85,64.202 13.908,64.144 C13.966,64.087 13.995,64.01 13.995,63.915 z M14.349,62.953 C14.349,63.058 14.322,63.151 14.267,63.232 C14.212,63.314 14.138,63.377 14.042,63.422 C14.158,63.47 14.25,63.538 14.317,63.627 C14.385,63.716 14.42,63.818 14.42,63.933 C14.42,64.129 14.352,64.282 14.215,64.392 C14.078,64.501 13.903,64.556 13.69,64.556 C13.467,64.556 13.284,64.501 13.141,64.392 C12.998,64.282 12.926,64.129 12.926,63.933 C12.926,63.818 12.962,63.716 13.032,63.627 C13.102,63.538 13.199,63.47 13.319,63.422 C13.219,63.376 13.14,63.313 13.084,63.232 C13.027,63.151 12.999,63.058 12.999,62.953 C12.999,62.766 13.063,62.622 13.19,62.521 C13.317,62.42 13.483,62.37 13.688,62.37 C13.883,62.37 14.043,62.42 14.166,62.521 C14.289,62.622 14.349,62.766 14.349,62.953 z M11.845,64.042 L10.537,64.042 L10.537,63.708 L11.845,63.708 L11.845,64.042 z M11.845,63.414 L10.537,63.414 L10.537,63.08 L11.845,63.08 L11.845,63.414 z M8.613,63.95 L8.638,64.067 L8.647,64.067 L8.672,63.955 L9.135,62.401 L9.584,62.401 L8.861,64.526 L8.425,64.526 L7.704,62.401 L8.153,62.401 L8.613,63.95 z" fill="#006BA7"/>
      <path d="M19.84,66.15 C19.84,66.066 19.818,66 19.774,65.951 C19.73,65.901 19.673,65.877 19.604,65.877 C19.524,65.877 19.461,65.9 19.413,65.949 C19.365,65.997 19.342,66.064 19.342,66.15 C19.342,66.236 19.366,66.306 19.415,66.359 C19.464,66.412 19.528,66.439 19.608,66.439 C19.678,66.439 19.734,66.412 19.777,66.36 C19.819,66.307 19.84,66.237 19.84,66.15 M19.911,67.091 C19.911,66.996 19.881,66.919 19.823,66.858 C19.763,66.797 19.691,66.767 19.605,66.767 C19.509,66.767 19.43,66.797 19.367,66.858 C19.304,66.919 19.272,66.997 19.272,67.091 C19.272,67.187 19.303,67.264 19.366,67.321 C19.429,67.379 19.509,67.407 19.608,67.407 C19.695,67.407 19.768,67.379 19.825,67.321 C19.882,67.264 19.911,67.188 19.911,67.091 z M20.265,66.131 C20.265,66.236 20.238,66.329 20.183,66.41 C20.128,66.492 20.054,66.555 19.958,66.6 C20.074,66.648 20.166,66.716 20.234,66.806 C20.302,66.894 20.336,66.996 20.336,67.112 C20.336,67.308 20.268,67.461 20.131,67.571 C19.994,67.68 19.819,67.736 19.606,67.736 C19.383,67.736 19.2,67.681 19.057,67.571 C18.914,67.461 18.842,67.308 18.842,67.112 C18.842,66.997 18.878,66.895 18.948,66.806 C19.018,66.717 19.114,66.648 19.235,66.6 C19.135,66.554 19.056,66.491 19,66.41 C18.943,66.329 18.915,66.236 18.915,66.131 C18.915,65.944 18.979,65.8 19.106,65.699 C19.233,65.598 19.399,65.548 19.604,65.548 C19.799,65.548 19.958,65.598 20.082,65.699 C20.204,65.8 20.265,65.944 20.265,66.131 z M17.477,66.914 L17.976,66.914 L17.976,66.142 L17.968,66.141 L17.924,66.236 L17.477,66.914 z M18.403,66.914 L18.642,66.914 L18.642,67.244 L18.403,67.244 L18.403,67.705 L17.976,67.705 L17.976,67.244 L17.111,67.244 L17.09,66.989 L17.972,65.58 L18.403,65.58 L18.403,66.914 z M16.775,67.704 L16.349,67.704 L16.349,67.33 L16.775,67.33 L16.775,67.704 z M15.586,67.704 L15.161,67.704 L15.161,65.949 L14.722,65.949 L14.722,65.623 L15.586,65.547 L15.586,67.704 z M14.306,67.704 L12.88,67.704 L12.88,67.425 L13.538,66.681 C13.636,66.565 13.705,66.467 13.747,66.387 C13.789,66.306 13.81,66.233 13.81,66.165 C13.81,66.078 13.788,66.008 13.744,65.955 C13.7,65.903 13.635,65.876 13.547,65.876 C13.454,65.876 13.383,65.909 13.332,65.977 C13.281,66.044 13.256,66.129 13.256,66.232 L12.841,66.232 L12.838,66.223 C12.833,66.034 12.895,65.874 13.025,65.744 C13.154,65.613 13.328,65.548 13.546,65.548 C13.764,65.548 13.933,65.604 14.054,65.715 C14.175,65.827 14.235,65.976 14.235,66.164 C14.235,66.292 14.202,66.408 14.134,66.513 C14.066,66.618 13.949,66.764 13.784,66.95 L13.433,67.371 L13.436,67.378 L14.304,67.378 L14.304,67.704 L14.306,67.704 z M11.747,67.219 L10.439,67.219 L10.439,66.884 L11.747,66.884 L11.747,67.219 z M11.747,66.591 L10.439,66.591 L10.439,66.257 L11.747,66.257 L11.747,66.591 z M8.952,67.15 C8.952,67.068 8.924,67.002 8.867,66.953 C8.81,66.904 8.71,66.856 8.567,66.813 C8.322,66.739 8.135,66.652 8.008,66.552 C7.881,66.451 7.818,66.315 7.818,66.141 C7.818,65.967 7.889,65.825 8.032,65.714 C8.175,65.604 8.358,65.548 8.579,65.548 C8.815,65.548 9.004,65.608 9.148,65.726 C9.292,65.845 9.361,66.001 9.356,66.194 L9.353,66.202 L8.94,66.202 C8.94,66.096 8.907,66.014 8.843,65.958 C8.78,65.9 8.689,65.872 8.573,65.872 C8.468,65.872 8.387,65.897 8.329,65.948 C8.272,66 8.243,66.063 8.243,66.142 C8.243,66.214 8.275,66.273 8.337,66.319 C8.399,66.366 8.507,66.415 8.659,66.466 C8.892,66.531 9.071,66.618 9.194,66.725 C9.316,66.832 9.378,66.972 9.378,67.146 C9.378,67.328 9.307,67.472 9.165,67.577 C9.023,67.682 8.835,67.735 8.602,67.735 C8.373,67.735 8.177,67.677 8.013,67.564 C7.849,67.45 7.769,67.28 7.775,67.054 L7.777,67.045 L8.19,67.045 C8.19,67.17 8.227,67.263 8.301,67.322 C8.375,67.381 8.475,67.411 8.601,67.411 C8.715,67.411 8.802,67.388 8.862,67.34 C8.922,67.293 8.952,67.229 8.952,67.15 z" fill="#006BA7"/>
      <path d="M26.219,31.471 C26.219,43.17 21.477,52.654 15.628,52.654 C9.779,52.654 5.037,43.17 5.037,31.471 C5.037,19.772 9.779,10.288 15.628,10.288 C21.477,10.288 26.219,19.772 26.219,31.471 z" fill-opacity="0" stroke="#006BA7" stroke-width="0.53" stroke-miterlimit="22.926"/>
      <path d="M25.381,6.134 C25.381,6.293 25.414,6.421 25.479,6.517 C25.543,6.613 25.646,6.661 25.782,6.661 C25.868,6.661 25.94,6.641 25.998,6.603 C26.057,6.563 26.104,6.509 26.141,6.439 L26.141,5.702 C26.104,5.637 26.056,5.585 25.997,5.547 C25.938,5.508 25.868,5.489 25.785,5.489 C25.646,5.489 25.545,5.546 25.479,5.66 C25.413,5.774 25.38,5.922 25.38,6.104 L25.381,6.134 L25.381,6.134 z M25.094,6.103 C25.094,5.849 25.148,5.645 25.257,5.488 C25.365,5.333 25.517,5.254 25.713,5.254 C25.806,5.254 25.888,5.272 25.96,5.306 C26.032,5.34 26.092,5.389 26.143,5.455 L26.143,4.586 L26.431,4.586 L26.431,6.863 L26.21,6.863 L26.167,6.663 C26.115,6.739 26.051,6.796 25.976,6.835 C25.9,6.874 25.812,6.894 25.711,6.894 C25.519,6.894 25.368,6.824 25.259,6.684 C25.15,6.544 25.095,6.361 25.095,6.133 L25.094,6.103 L25.094,6.103 z M24.717,4.88 L24.43,4.88 L24.43,4.587 L24.717,4.587 L24.717,4.88 z M24.717,6.863 L24.43,6.863 L24.43,5.284 L24.717,5.284 L24.717,6.863 z M22.927,6.092 C22.927,6.259 22.962,6.397 23.033,6.507 C23.103,6.616 23.208,6.671 23.347,6.671 C23.484,6.671 23.588,6.616 23.66,6.507 C23.731,6.398 23.766,6.26 23.766,6.092 L23.766,6.059 C23.766,5.894 23.73,5.756 23.659,5.646 C23.587,5.536 23.483,5.481 23.344,5.481 C23.207,5.481 23.103,5.536 23.033,5.646 C22.962,5.755 22.927,5.894 22.927,6.059 L22.927,6.092 z M22.64,6.059 C22.64,5.826 22.703,5.633 22.83,5.482 C22.957,5.331 23.129,5.254 23.345,5.254 C23.564,5.254 23.737,5.33 23.864,5.481 C23.991,5.631 24.054,5.824 24.054,6.059 L24.054,6.091 C24.054,6.326 23.991,6.519 23.865,6.669 C23.738,6.819 23.566,6.894 23.348,6.894 C23.13,6.894 22.957,6.819 22.831,6.668 C22.704,6.518 22.64,6.325 22.64,6.091 L22.64,6.059 z M22.437,5.538 L22.29,5.529 C22.214,5.529 22.15,5.547 22.098,5.583 C22.046,5.619 22.006,5.669 21.978,5.734 L21.978,6.862 L21.69,6.862 L21.69,5.283 L21.947,5.283 L21.974,5.513 C22.019,5.431 22.074,5.367 22.14,5.322 C22.205,5.276 22.281,5.253 22.367,5.253 C22.388,5.253 22.409,5.255 22.429,5.259 C22.449,5.263 22.465,5.266 22.477,5.27 L22.437,5.538 z M20.733,5.482 C20.632,5.482 20.55,5.521 20.484,5.598 C20.418,5.676 20.379,5.774 20.363,5.895 L20.366,5.902 L21.078,5.902 L21.078,5.879 C21.078,5.764 21.05,5.67 20.994,5.595 C20.938,5.519 20.851,5.482 20.733,5.482 z M20.778,6.896 C20.551,6.896 20.375,6.823 20.248,6.678 C20.121,6.533 20.058,6.342 20.058,6.106 L20.058,6.042 C20.058,5.815 20.123,5.627 20.254,5.479 C20.385,5.332 20.545,5.256 20.733,5.256 C20.944,5.256 21.103,5.322 21.208,5.454 C21.313,5.586 21.366,5.76 21.366,5.978 L21.366,6.129 L20.356,6.129 L20.352,6.137 C20.352,6.295 20.387,6.424 20.457,6.523 C20.527,6.622 20.634,6.671 20.778,6.671 C20.876,6.671 20.961,6.657 21.035,6.629 C21.108,6.601 21.171,6.563 21.223,6.514 L21.336,6.7 C21.279,6.755 21.205,6.801 21.112,6.838 C21.021,6.876 20.909,6.896 20.778,6.896 z M18.713,5.496 C18.767,5.42 18.835,5.361 18.914,5.319 C18.993,5.277 19.081,5.255 19.178,5.255 C19.346,5.255 19.477,5.306 19.571,5.407 C19.665,5.508 19.712,5.664 19.712,5.874 L19.712,6.863 L19.425,6.863 L19.425,5.871 C19.425,5.74 19.397,5.644 19.341,5.582 C19.285,5.52 19.202,5.488 19.091,5.488 C19.005,5.488 18.931,5.505 18.868,5.538 C18.805,5.572 18.753,5.619 18.715,5.679 L18.715,6.863 L18.427,6.863 L18.427,4.586 L18.715,4.586 L18.715,5.496 L18.713,5.496 z M17.785,6.103 C17.785,5.924 17.75,5.777 17.68,5.661 C17.609,5.546 17.505,5.488 17.368,5.488 C17.285,5.488 17.215,5.507 17.157,5.544 C17.098,5.582 17.051,5.633 17.015,5.698 L17.015,6.461 C17.051,6.526 17.098,6.577 17.157,6.613 C17.215,6.65 17.287,6.668 17.371,6.668 C17.507,6.668 17.61,6.618 17.681,6.518 C17.751,6.418 17.786,6.29 17.786,6.132 L17.785,6.103 L17.785,6.103 z M18.072,6.134 C18.072,6.362 18.018,6.545 17.908,6.685 C17.799,6.825 17.649,6.895 17.457,6.895 C17.359,6.895 17.274,6.878 17.201,6.846 C17.128,6.814 17.065,6.764 17.013,6.7 L17.013,7.472 L16.725,7.472 L16.725,5.285 L16.945,5.285 L16.99,5.489 C17.042,5.413 17.106,5.356 17.183,5.316 C17.26,5.276 17.35,5.255 17.452,5.255 C17.648,5.255 17.8,5.333 17.908,5.488 C18.017,5.643 18.071,5.848 18.071,6.103 L18.072,6.134 L18.072,6.134 z M16.081,6.439 C16.081,6.376 16.057,6.324 16.009,6.285 C15.961,6.245 15.87,6.21 15.735,6.18 C15.549,6.14 15.407,6.084 15.307,6.013 C15.207,5.942 15.157,5.845 15.157,5.724 C15.157,5.596 15.212,5.485 15.322,5.394 C15.432,5.302 15.573,5.256 15.747,5.256 C15.926,5.256 16.071,5.305 16.183,5.402 C16.294,5.5 16.347,5.613 16.342,5.743 L16.339,5.752 L16.065,5.752 C16.065,5.684 16.035,5.622 15.975,5.566 C15.915,5.51 15.839,5.483 15.748,5.483 C15.647,5.483 15.571,5.505 15.521,5.551 C15.471,5.597 15.446,5.651 15.446,5.715 C15.446,5.777 15.467,5.825 15.511,5.859 C15.554,5.894 15.643,5.924 15.779,5.953 C15.973,5.994 16.12,6.052 16.22,6.127 C16.32,6.202 16.37,6.299 16.37,6.42 C16.37,6.56 16.313,6.674 16.2,6.763 C16.086,6.852 15.938,6.896 15.755,6.896 C15.554,6.896 15.395,6.845 15.279,6.743 C15.164,6.64 15.109,6.521 15.114,6.385 L15.117,6.377 L15.391,6.377 C15.396,6.479 15.434,6.554 15.504,6.601 C15.576,6.648 15.659,6.672 15.754,6.672 C15.857,6.672 15.936,6.651 15.994,6.607 C16.052,6.563 16.081,6.506 16.081,6.439 z M13.464,5.482 C13.363,5.482 13.281,5.521 13.215,5.598 C13.149,5.676 13.109,5.774 13.094,5.895 L13.097,5.902 L13.809,5.902 L13.809,5.879 C13.809,5.764 13.781,5.67 13.724,5.595 C13.668,5.519 13.582,5.482 13.464,5.482 z M13.509,6.896 C13.282,6.896 13.105,6.823 12.979,6.678 C12.852,6.533 12.788,6.342 12.788,6.106 L12.788,6.042 C12.788,5.815 12.854,5.627 12.984,5.479 C13.115,5.332 13.275,5.256 13.464,5.256 C13.675,5.256 13.833,5.322 13.939,5.454 C14.045,5.585 14.098,5.76 14.098,5.978 L14.098,6.129 L13.088,6.129 L13.083,6.137 C13.083,6.295 13.118,6.424 13.188,6.523 C13.258,6.622 13.365,6.671 13.509,6.671 C13.607,6.671 13.692,6.657 13.765,6.629 C13.838,6.601 13.902,6.563 13.954,6.514 L14.066,6.7 C14.009,6.755 13.935,6.801 13.842,6.838 C13.751,6.876 13.639,6.896 13.509,6.896 z M12.248,4.903 L12.248,5.284 L12.547,5.284 L12.547,5.497 L12.248,5.497 L12.248,6.456 C12.248,6.53 12.263,6.582 12.294,6.612 C12.325,6.642 12.365,6.657 12.416,6.657 C12.433,6.657 12.451,6.655 12.471,6.651 C12.492,6.646 12.509,6.642 12.522,6.637 L12.562,6.834 C12.541,6.852 12.509,6.866 12.467,6.877 C12.425,6.888 12.384,6.894 12.343,6.894 C12.227,6.894 12.134,6.858 12.065,6.788 C11.996,6.718 11.961,6.606 11.961,6.456 L11.961,5.498 L11.71,5.498 L11.71,5.284 L11.961,5.284 L11.961,4.903 L12.248,4.903 z M10.698,6.654 C10.802,6.654 10.896,6.627 10.98,6.573 C11.064,6.52 11.118,6.459 11.144,6.389 L11.144,6.132 L10.82,6.132 C10.704,6.132 10.612,6.161 10.542,6.219 C10.473,6.278 10.438,6.346 10.438,6.425 C10.438,6.495 10.46,6.551 10.504,6.592 C10.547,6.633 10.612,6.654 10.698,6.654 z M11.175,6.863 C11.166,6.815 11.158,6.774 11.153,6.737 C11.148,6.7 11.145,6.664 11.144,6.627 C11.09,6.703 11.02,6.766 10.934,6.817 C10.848,6.868 10.755,6.894 10.656,6.894 C10.491,6.894 10.366,6.852 10.281,6.768 C10.195,6.684 10.152,6.567 10.152,6.419 C10.152,6.269 10.213,6.15 10.335,6.065 C10.457,5.98 10.623,5.937 10.832,5.937 L11.145,5.937 L11.145,5.781 C11.145,5.689 11.117,5.616 11.06,5.561 C11.004,5.507 10.924,5.48 10.821,5.48 C10.728,5.48 10.652,5.503 10.594,5.549 C10.537,5.596 10.508,5.652 10.508,5.717 L10.235,5.72 L10.233,5.711 C10.226,5.596 10.28,5.491 10.394,5.396 C10.509,5.3 10.656,5.252 10.837,5.252 C11.016,5.252 11.16,5.298 11.269,5.389 C11.378,5.48 11.432,5.611 11.432,5.783 L11.432,6.543 C11.432,6.6 11.435,6.654 11.441,6.707 C11.447,6.76 11.458,6.811 11.473,6.862 L11.175,6.863 L11.175,6.863 z M9.762,6.863 L9.474,6.863 L9.474,4.586 L9.762,4.586 L9.762,6.863 z M7.972,6.092 C7.972,6.259 8.008,6.397 8.078,6.507 C8.148,6.616 8.253,6.671 8.392,6.671 C8.529,6.671 8.633,6.616 8.705,6.507 C8.776,6.398 8.811,6.26 8.811,6.092 L8.811,6.059 C8.811,5.894 8.775,5.756 8.704,5.646 C8.633,5.536 8.528,5.481 8.389,5.481 C8.252,5.481 8.148,5.536 8.078,5.646 C8.007,5.755 7.972,5.894 7.972,6.059 L7.972,6.092 z M7.685,6.059 C7.685,5.826 7.748,5.633 7.875,5.482 C8.001,5.332 8.173,5.254 8.39,5.254 C8.61,5.254 8.783,5.33 8.91,5.481 C9.037,5.631 9.1,5.824 9.1,6.059 L9.1,6.091 C9.1,6.326 9.037,6.519 8.91,6.669 C8.783,6.819 8.612,6.894 8.393,6.894 C8.175,6.894 8.002,6.819 7.875,6.668 C7.748,6.518 7.685,6.325 7.685,6.091 L7.685,6.059 z M7.482,5.538 L7.334,5.529 C7.258,5.529 7.194,5.547 7.142,5.583 C7.089,5.619 7.05,5.669 7.021,5.734 L7.021,6.862 L6.734,6.862 L6.734,5.283 L6.991,5.283 L7.019,5.513 C7.063,5.431 7.119,5.367 7.185,5.322 C7.251,5.276 7.326,5.253 7.412,5.253 C7.433,5.253 7.454,5.255 7.473,5.259 C7.493,5.262 7.509,5.266 7.521,5.27 L7.482,5.538 z M6.094,6.103 C6.094,5.924 6.058,5.777 5.988,5.661 C5.918,5.546 5.813,5.488 5.676,5.488 C5.593,5.488 5.522,5.507 5.464,5.544 C5.405,5.583 5.358,5.633 5.322,5.698 L5.322,6.461 C5.358,6.526 5.405,6.577 5.464,6.613 C5.522,6.65 5.594,6.668 5.678,6.668 C5.814,6.668 5.917,6.618 5.988,6.518 C6.058,6.418 6.093,6.29 6.093,6.132 L6.093,6.103 L6.094,6.103 z M6.381,6.134 C6.381,6.362 6.327,6.545 6.217,6.685 C6.108,6.825 5.958,6.895 5.766,6.895 C5.668,6.895 5.583,6.878 5.51,6.846 C5.436,6.813 5.374,6.764 5.322,6.7 L5.322,7.472 L5.035,7.472 L5.035,5.285 L5.255,5.285 L5.3,5.489 C5.352,5.413 5.416,5.356 5.493,5.316 C5.57,5.276 5.66,5.255 5.762,5.255 C5.958,5.255 6.11,5.333 6.218,5.488 C6.326,5.643 6.381,5.848 6.381,6.103 L6.381,6.134 z" fill="#006BA7"/>
      <path d="M12.98,31.47 L12.98,31.47 z M12.98,31.47 C12.98,19.771 14.16,10.287 15.616,10.287" fill-opacity="0" stroke="#006BA7" stroke-width="0.353" stroke-miterlimit="22.926"/>
      <path d="M15.628,34.193 L15.628,34.193 z M15.628,34.193 C21.478,34.193 26.22,32.974 26.22,31.471" fill-opacity="0" stroke="#006BA7" stroke-width="0.353" stroke-miterlimit="22.926"/>
    </g>
  </g>
</svg>
